<svg width="21" height="30" viewBox="0 0 21 30" fill="none" xmlns="http://www.w3.org/2000/svg">
<path d="M3.06446 23.8636C5.62446 21.7303 7.66446 19.9569 9.18445 18.5436C10.7045 17.1036 11.9711 15.6103 12.9845 14.0636C13.9978 12.5169 14.5045 10.9969 14.5045 9.50359C14.5045 8.14359 14.1845 7.07693 13.5445 6.30359C12.9045 5.53026 11.9178 5.14359 10.5845 5.14359C9.25112 5.14359 8.22446 5.59693 7.50446 6.50359C6.78446 7.38359 6.41112 8.59693 6.38446 10.1436H0.944455C1.05112 6.94359 1.99779 4.51693 3.78446 2.86359C5.59779 1.21026 7.89112 0.383591 10.6645 0.383591C13.7045 0.383591 16.0378 1.19693 17.6645 2.82359C19.2911 4.42359 20.1045 6.54359 20.1045 9.18359C20.1045 11.2636 19.5445 13.2503 18.4245 15.1436C17.3045 17.0369 16.0245 18.6903 14.5845 20.1036C13.1445 21.4903 11.2645 23.1703 8.94446 25.1436H20.7445V29.7836H0.984455V25.6236L3.06446 23.8636Z" fill="url(#paint0_linear_8_16)"/>
<defs>
<linearGradient id="paint0_linear_8_16" x1="10.6688" y1="-18.8164" x2="10.6688" y2="51.1836" gradientUnits="userSpaceOnUse">
<stop/>
<stop offset="1" stop-opacity="0"/>
</linearGradient>
</defs>
</svg>
