<svg width="22" height="31" viewBox="0 0 22 31" fill="none" xmlns="http://www.w3.org/2000/svg">
<path d="M1.19332 9.59249C1.29999 6.73916 2.23332 4.53916 3.99332 2.99249C5.75332 1.44582 8.13999 0.672489 11.1533 0.672489C13.1533 0.672489 14.86 1.01916 16.2733 1.71249C17.7133 2.40582 18.7933 3.35249 19.5133 4.55249C20.26 5.75249 20.6333 7.09916 20.6333 8.59249C20.6333 10.3525 20.1933 11.7925 19.3133 12.9125C18.4333 14.0058 17.4067 14.7525 16.2333 15.1525V15.3125C17.7533 15.8192 18.9533 16.6592 19.8333 17.8325C20.7133 19.0058 21.1533 20.5125 21.1533 22.3525C21.1533 24.0058 20.7667 25.4725 19.9933 26.7525C19.2467 28.0058 18.14 28.9925 16.6733 29.7125C15.2333 30.4325 13.5133 30.7925 11.5133 30.7925C8.31332 30.7925 5.75332 30.0058 3.83332 28.4325C1.93999 26.8592 0.939987 24.4858 0.83332 21.3125H7.47332C7.49999 22.4858 7.83332 23.4192 8.47332 24.1125C9.11332 24.7792 10.0467 25.1125 11.2733 25.1125C12.3133 25.1125 13.1133 24.8192 13.6733 24.2325C14.26 23.6192 14.5533 22.8192 14.5533 21.8325C14.5533 20.5525 14.14 19.6325 13.3133 19.0725C12.5133 18.4858 11.22 18.1925 9.43332 18.1925H8.15332V12.6325H9.43332C10.7933 12.6325 11.8867 12.4058 12.7133 11.9525C13.5667 11.4725 13.9933 10.6325 13.9933 9.43249C13.9933 8.47249 13.7267 7.72582 13.1933 7.19249C12.66 6.65916 11.9267 6.39249 10.9933 6.39249C9.97999 6.39249 9.21999 6.69916 8.71332 7.31249C8.23332 7.92582 7.95332 8.68582 7.87332 9.59249H1.19332Z" fill="url(#paint0_linear_8_17)"/>
<defs>
<linearGradient id="paint0_linear_8_17" x1="12.9561" y1="-18.4475" x2="12.9561" y2="51.5525" gradientUnits="userSpaceOnUse">
<stop/>
<stop offset="1" stop-opacity="0"/>
</linearGradient>
</defs>
</svg>
