<svg id="Layer_1" data-name="Layer 1" xmlns="http://www.w3.org/2000/svg" viewBox="0 0 362.67 276.18"><defs><style>.cls-1{fill:#c7c8ca;}</style></defs><title>Arrow</title><path class="cls-1" d="M444.24,363.68c-.25.48-.51,1-.79,1.44-2.72,4.77-6.58,8.77-10.39,12.72q-50,51.72-99.75,103.72c-3.1,2.87-9.11,5.26-9.11,5.26-8.62,2.42-17.92.26-17.92.26C291,482.37,286.93,472,286.92,472c-2.61-6.7-4-14.12-2.73-21.27,1.42-8,6.25-12.56,11.37-18.34l10.31-11.62,22.22-25.05,11.42-12.87L178,385.21l-35.59.53c-13.76.21-29.5,2.57-42-4.58-13.47-7.69-18.08-26.3-14-40.65,8.45-29.65,39.09-23.93,62.78-23.93H302.66c4.79,0,33-3.7,36.34,0l-10.34-11.32-21.54-23.55-18.55-20.28a22.68,22.68,0,0,1-6.11-12.16,44.78,44.78,0,0,1-.41-11.21,27.52,27.52,0,0,1,1-4.92c.24-.85.53-1.68.85-2.5.25-.62,1.12-1.79,1.12-2.42,0,0,3.87-10.47,19.12-15.41,0,0,9.26-2.29,17.92,0,0,0,6.05,2.3,9.2,5.12l72.66,73.44C421.64,309.28,459,334.88,444.24,363.68Z" transform="translate(-84.93 -211.79)"/></svg>