<svg width="40" height="35" viewBox="0 0 40 35" fill="none" xmlns="http://www.w3.org/2000/svg">
<path d="M33.3333 0.397949H6.66667C3 0.397949 0 3.84251 0 8.05253V27.189C0 31.399 3 34.8435 6.66667 34.8435H33.3333C37 34.8435 40 31.399 40 27.189V8.05253C40 3.84251 37 0.397949 33.3333 0.397949ZM36 11.4971L22.8333 21.6394C22 22.2135 21 22.5962 20 22.5962C19 22.5962 18 22.2135 17.1667 21.6394L4 11.4971C3.33333 10.923 3.16667 9.77481 3.66667 8.81798C4.16667 8.05253 5.16667 7.86116 6 8.43525L19.1667 18.5776C19.6667 18.9603 20.5 18.9603 21 18.5776L34.1667 8.43525C35 7.86116 36 8.05253 36.5 9.00935C36.8333 9.77481 36.6667 10.923 36 11.4971Z" fill="white"/>
</svg>
