<svg width="26" height="31" viewBox="0 0 26 31" fill="none" xmlns="http://www.w3.org/2000/svg">
<mask id="path-1-inside-1_37_188" fill="white">
<path fill-rule="evenodd" clip-rule="evenodd" d="M0 7.04949C0 3.37605 2.59335 0.397949 5.79262 0.397949C6.41739 0.397949 7.02094 0.511941 7.58725 0.723655C8.31146 0.994409 8.7368 1.71624 8.84598 2.43577M8.84598 2.43577L9.5163 6.8514L9.8303 8.91804L10.0012 10.299C10.0895 11.0094 9.8887 11.8298 9.295 12.3479C8.67945 12.8851 7.96643 13.2847 7.19115 13.5056C7.90065 15.3912 8.91481 17.1064 10.1806 18.5598C11.4471 20.0141 12.9416 21.1792 14.5847 21.994C14.7769 21.1041 15.1247 20.2857 15.5921 19.5791C16.0433 18.897 16.7581 18.6662 17.377 18.7677L18.5781 18.9646L20.3765 19.3242L24.2253 20.0942C24.8521 20.2196 25.481 20.7082 25.7167 21.5401C25.9008 22.19 25.9999 22.8824 25.9999 23.5992C25.9999 27.2727 23.4066 30.2508 20.2073 30.2508C19.9504 30.2508 19.6969 30.2315 19.448 30.1941C18.2876 30.144 17.135 29.979 16.0028 29.7021C14.8025 29.4086 13.6252 28.9892 12.486 28.4472C10.0388 27.2833 7.81525 25.5772 5.94225 23.4264C4.06925 21.2757 2.58352 18.7223 1.56986 15.9122C1.09799 14.6041 0.73272 13.2522 0.47706 11.8741C0.23564 10.5726 0.09196 9.24756 0.04855 7.91363C0.01648 7.6303 0 7.34183 0 7.04949M20.0333 21.5865L18.2502 21.23L17.1335 21.0474C16.8423 21.5089 16.6286 22.0375 16.513 22.6086C16.3943 23.1952 16.0793 23.708 15.6509 24.026C15.2101 24.3531 14.6103 24.4937 14.0144 24.2102C12.0518 23.2767 10.2685 21.9084 8.76633 20.1835C7.26419 18.4587 6.07264 16.4109 5.2597 14.1572C5.01321 13.474 5.13542 12.7861 5.42002 12.2806C5.69664 11.7893 6.14275 11.4281 6.65323 11.2923C7.15165 11.1597 7.61299 10.9137 8.01567 10.5785L7.85065 9.25062L7.54604 7.2461L6.88274 2.8766C6.5386 2.75825 6.17295 2.69432 5.79262 2.69432C3.6981 2.69432 2 4.64409 2 7.04949C2 7.25649 2.01251 7.45949 2.03656 7.65769L2.04372 7.71666L2.04553 7.77616C2.08256 8.99532 2.21258 10.2064 2.43319 11.3957C2.6635 12.6373 2.99256 13.8552 3.41765 15.0335C4.33081 17.5651 5.66924 19.8652 7.35653 21.8028C9.0438 23.7402 11.0469 25.2772 13.2515 26.3257C14.2777 26.8138 15.3382 27.1917 16.4195 27.4561C17.4542 27.7093 18.5079 27.8586 19.5686 27.9012L19.621 27.9033L19.6729 27.9117C19.847 27.9398 20.0254 27.9544 20.2073 27.9544C22.3018 27.9544 23.9999 26.0047 23.9999 23.5992C23.9999 23.1628 23.9443 22.7433 23.8414 22.3484L20.0333 21.5865Z"/>
</mask>
<path d="M7.58725 0.723655L8.63781 -2.08638L8.63778 -2.08639L7.58725 0.723655ZM9.5163 6.8514L6.55028 7.30166L6.55034 7.30204L9.5163 6.8514ZM9.8303 8.91804L12.8076 8.54959L12.8025 8.50842L12.7963 8.4674L9.8303 8.91804ZM10.0012 10.299L7.02391 10.6674L7.02411 10.669L10.0012 10.299ZM9.295 12.3479L11.2674 14.6084L11.2677 14.6081L9.295 12.3479ZM7.19115 13.5056L6.36904 10.6205L3.23608 11.5132L4.38335 14.5622L7.19115 13.5056ZM10.1806 18.5598L7.91824 20.5301L7.91825 20.5301L10.1806 18.5598ZM14.5847 21.994L13.252 24.6817L16.7037 26.3932L17.5171 22.6273L14.5847 21.994ZM15.5921 19.5791L18.0942 21.2342L18.0943 21.2341L15.5921 19.5791ZM17.377 18.7677L16.8915 21.7281L16.8916 21.7281L17.377 18.7677ZM18.5781 18.9646L19.1663 16.0228L19.1151 16.0126L19.0635 16.0041L18.5781 18.9646ZM20.3765 19.3242L20.965 16.3825L20.9647 16.3824L20.3765 19.3242ZM24.2253 20.0942L23.6368 23.0359L23.6369 23.0359L24.2253 20.0942ZM25.7167 21.5401L28.6031 20.7224L28.6031 20.7223L25.7167 21.5401ZM19.448 30.1941L19.8941 27.2274L19.7365 27.2037L19.5773 27.1969L19.448 30.1941ZM16.0028 29.7021L16.7156 26.788L16.7153 26.7879L16.0028 29.7021ZM12.486 28.4472L13.7748 25.7382L13.7745 25.738L12.486 28.4472ZM1.56986 15.9122L-1.25215 16.9302L-1.25215 16.9302L1.56986 15.9122ZM0.47706 11.8741L-2.47262 12.4212L-2.47262 12.4213L0.47706 11.8741ZM0.04855 7.91363L3.04696 7.81606L3.04305 7.69579L3.02952 7.57623L0.04855 7.91363ZM20.0333 21.5865L20.6219 18.6448L20.6215 18.6447L20.0333 21.5865ZM18.2502 21.23L18.8384 18.2882L18.7865 18.2778L18.7342 18.2693L18.2502 21.23ZM17.1335 21.0474L17.6175 18.0867L15.6567 17.7661L14.5964 19.4464L17.1335 21.0474ZM16.513 22.6086L13.5726 22.0134L13.5726 22.0136L16.513 22.6086ZM15.6509 24.026L17.4387 26.4351L17.4392 26.4348L15.6509 24.026ZM14.0144 24.2102L15.3032 21.5011L15.303 21.501L14.0144 24.2102ZM8.76633 20.1835L11.0287 18.2133L11.0286 18.2132L8.76633 20.1835ZM5.2597 14.1572L8.08171 13.1393L8.08169 13.1392L5.2597 14.1572ZM5.42002 12.2806L8.0341 13.7526L8.03416 13.7525L5.42002 12.2806ZM6.65323 11.2923L5.88185 8.39315L5.88182 8.39316L6.65323 11.2923ZM8.01567 10.5785L9.93495 12.8843L11.1949 11.8355L10.9928 10.2086L8.01567 10.5785ZM7.85065 9.25062L10.8278 8.88065L10.8227 8.8402L10.8166 8.7999L7.85065 9.25062ZM7.54604 7.2461L4.58002 7.69635L4.58009 7.69681L7.54604 7.2461ZM6.88274 2.8766L9.84876 2.42635L9.57613 0.630378L7.85831 0.0396525L6.88274 2.8766ZM2.03656 7.65769L-0.941595 8.01907L-0.941569 8.01928L2.03656 7.65769ZM2.04372 7.71666L5.04233 7.62544L5.03821 7.48979L5.02185 7.35507L2.04372 7.71666ZM2.04553 7.77616L5.04415 7.68508L5.04414 7.68494L2.04553 7.77616ZM2.43319 11.3957L-0.516495 11.9429L-0.516487 11.9429L2.43319 11.3957ZM3.41765 15.0335L6.23967 14.0156L6.23965 14.0155L3.41765 15.0335ZM7.35653 21.8028L5.09413 23.773L5.09418 23.773L7.35653 21.8028ZM13.2515 26.3257L14.5401 23.6166L14.54 23.6165L13.2515 26.3257ZM16.4195 27.4561L17.1325 24.5421L17.1321 24.542L16.4195 27.4561ZM19.5686 27.9012L19.6934 24.9037L19.689 24.9036L19.5686 27.9012ZM19.621 27.9033L20.0993 24.9417L19.9236 24.9133L19.7458 24.9059L19.621 27.9033ZM19.6729 27.9117L20.1514 24.9501L20.1512 24.9501L19.6729 27.9117ZM23.8414 22.3484L26.7444 21.5919L26.271 19.7751L24.43 19.4067L23.8414 22.3484ZM3 7.04949C3 4.62989 4.62635 3.39795 5.79262 3.39795V-2.60205C0.560347 -2.60205 -3 2.1222 -3 7.04949H3ZM5.79262 3.39795C6.04877 3.39795 6.29701 3.44409 6.53672 3.53371L8.63778 -2.08639C7.74487 -2.42021 6.78601 -2.60205 5.79262 -2.60205V3.39795ZM6.53669 3.53369C6.23961 3.42263 6.06238 3.23714 5.98021 3.11839C5.90604 3.01119 5.88698 2.9323 5.87993 2.88583L11.812 1.98571C11.5963 0.563896 10.6919 -1.31845 8.63781 -2.08638L6.53669 3.53369ZM5.87996 2.88603L6.55028 7.30166L12.4823 6.40114L11.812 1.98551L5.87996 2.88603ZM6.55034 7.30204L6.86434 9.36868L12.7963 8.4674L12.4823 6.40076L6.55034 7.30204ZM6.85301 9.2865L7.02391 10.6674L12.9785 9.93054L12.8076 8.54959L6.85301 9.2865ZM7.02411 10.669C7.01843 10.6234 7.01863 10.5696 7.04336 10.4913C7.07081 10.4045 7.14589 10.2417 7.32231 10.0877L11.2677 14.6081C12.8012 13.2697 13.155 11.3506 12.9783 9.92894L7.02411 10.669ZM7.32258 10.0875C7.01616 10.3549 6.69039 10.5289 6.36904 10.6205L8.01326 16.3908C9.24247 16.0406 10.3427 15.4152 11.2674 14.6084L7.32258 10.0875ZM4.38335 14.5622C5.21284 16.7666 6.40684 18.7945 7.91824 20.5301L12.443 16.5896C11.4228 15.4182 10.5885 14.0158 9.99895 12.4491L4.38335 14.5622ZM7.91825 20.5301C9.43098 22.2671 11.237 23.6825 13.252 24.6817L15.9174 19.3062C14.6462 18.6759 13.4632 17.7612 12.443 16.5896L7.91825 20.5301ZM17.5171 22.6273C17.632 22.0952 17.8362 21.6243 18.0942 21.2342L13.09 17.924C12.4132 18.9471 11.9218 20.1131 11.6523 21.3606L17.5171 22.6273ZM18.0943 21.2341C17.9927 21.3877 17.816 21.5485 17.5761 21.6485C17.3522 21.7418 17.1159 21.7649 16.8915 21.7281L17.8625 15.8072C16.1581 15.5277 14.2369 16.19 13.0899 17.924L18.0943 21.2341ZM16.8916 21.7281L18.0927 21.9251L19.0635 16.0041L17.8624 15.8072L16.8916 21.7281ZM17.9899 21.9063L19.7883 22.266L20.9647 16.3824L19.1663 16.0228L17.9899 21.9063ZM19.788 22.2659L23.6368 23.0359L24.8138 17.1525L20.965 16.3825L19.788 22.2659ZM23.6369 23.0359C23.1896 22.9464 22.9097 22.6379 22.8303 22.3579L28.6031 20.7223C28.0523 18.7785 26.5146 17.4927 24.8137 17.1524L23.6369 23.0359ZM22.8303 22.3578C22.9391 22.7417 22.9999 23.159 22.9999 23.5992H28.9999C28.9999 22.6058 28.8625 21.6382 28.6031 20.7224L22.8303 22.3578ZM22.9999 23.5992C22.9999 26.0189 21.3736 27.2508 20.2073 27.2508V33.2508C25.4396 33.2508 28.9999 28.5266 28.9999 23.5992H22.9999ZM20.2073 27.2508C20.1008 27.2508 19.9965 27.2428 19.8941 27.2274L19.0019 33.1607C19.3973 33.2202 19.8 33.2508 20.2073 33.2508V27.2508ZM19.5773 27.1969C18.6154 27.1554 17.6582 27.0186 16.7156 26.788L15.29 32.6162C16.6118 32.9395 17.9598 33.1327 19.3187 33.1913L19.5773 27.1969ZM16.7153 26.7879C15.7163 26.5437 14.7319 26.1935 13.7748 25.7382L11.1972 31.1563C12.5185 31.7849 13.8887 32.2736 15.2903 32.6162L16.7153 26.7879ZM13.7745 25.738C11.7186 24.7602 9.82165 23.3131 8.20463 21.4563L3.67987 25.3966C5.80885 27.8414 8.35898 29.8064 11.1975 31.1564L13.7745 25.738ZM8.20463 21.4563C6.58697 19.5987 5.28559 17.3719 4.39187 14.8943L-1.25215 16.9302C-0.118554 20.0728 1.55153 22.9526 3.67987 25.3966L8.20463 21.4563ZM4.39187 14.8943C3.97611 13.7417 3.65315 12.5474 3.42674 11.3269L-2.47262 12.4213C-2.18771 13.9571 -1.78013 15.4665 -1.25215 16.9302L4.39187 14.8943ZM3.42674 11.3269C3.21295 10.1744 3.08548 8.99965 3.04696 7.81606L-2.94986 8.01121C-2.90156 9.49548 -2.74167 10.9708 -2.47262 12.4212L3.42674 11.3269ZM3.02952 7.57623C3.01012 7.40489 3 7.22906 3 7.04949H-3C-3 7.45459 -2.97716 7.8557 -2.93242 8.25104L3.02952 7.57623ZM20.6215 18.6447L18.8384 18.2882L17.662 24.1717L19.4451 24.5282L20.6215 18.6447ZM18.7342 18.2693L17.6175 18.0867L16.6495 24.0081L17.7662 24.1907L18.7342 18.2693ZM14.5964 19.4464C14.1075 20.2211 13.7592 21.0915 13.5726 22.0134L19.4534 23.2038C19.498 22.9835 19.5771 22.7966 19.6706 22.6484L14.5964 19.4464ZM13.5726 22.0136C13.5813 21.9706 13.5993 21.9174 13.6368 21.8561C13.6735 21.7958 13.742 21.7068 13.8626 21.6173L17.4392 26.4348C18.5238 25.6295 19.2037 24.4376 19.4534 23.2036L13.5726 22.0136ZM13.8631 21.6169C13.9933 21.5203 14.1914 21.4172 14.4597 21.3782C14.7495 21.3361 15.0507 21.381 15.3032 21.5011L12.7256 26.9193C14.5139 27.77 16.2897 27.2878 17.4387 26.4351L13.8631 21.6169ZM15.303 21.501C13.7316 20.7536 12.2749 19.6443 11.0287 18.2133L6.50397 22.1537C8.26211 24.1726 10.372 25.7998 12.7258 26.9194L15.303 21.501ZM11.0286 18.2132C9.78191 16.7817 8.77472 15.0605 8.08171 13.1393L2.43769 15.1752C3.37056 17.7613 4.74647 20.1357 6.50401 22.1538L11.0286 18.2132ZM8.08169 13.1392C8.16958 13.3828 8.11892 13.6019 8.0341 13.7526L2.80594 10.8087C2.15192 11.9702 1.85684 13.5651 2.43771 15.1753L8.08169 13.1392ZM8.03416 13.7525C7.95301 13.8966 7.76927 14.0997 7.42464 14.1914L5.88182 8.39316C4.51623 8.75653 3.44027 9.68207 2.80588 10.8088L8.03416 13.7525ZM7.42461 14.1914C8.37256 13.9392 9.22058 13.4789 9.93495 12.8843L6.09639 8.27282C6.0054 8.34855 5.93074 8.38015 5.88185 8.39315L7.42461 14.1914ZM10.9928 10.2086L10.8278 8.88065L4.87355 9.62058L5.03857 10.9485L10.9928 10.2086ZM10.8166 8.7999L10.512 6.79539L4.58009 7.69681L4.8847 9.70133L10.8166 8.7999ZM10.5121 6.79585L9.84876 2.42635L3.91672 3.32684L4.58002 7.69635L10.5121 6.79585ZM7.85831 0.0396525C7.2077 -0.184084 6.51271 -0.305678 5.79262 -0.305678V5.69432C5.83319 5.69432 5.8695 5.70059 5.90717 5.71354L7.85831 0.0396525ZM5.79262 -0.305678C1.66513 -0.305678 -1 3.39021 -1 7.04949H5C5 6.54815 5.17734 6.16502 5.37323 5.94009C5.56387 5.72117 5.71964 5.69432 5.79262 5.69432V-0.305678ZM-1 7.04949C-1 7.37744 -0.980175 7.70112 -0.941595 8.01907L5.01472 7.29632C5.0052 7.21786 5 7.13554 5 7.04949H-1ZM-0.941569 8.01928L-0.934409 8.07825L5.02185 7.35507L5.01469 7.2961L-0.941569 8.01928ZM-0.954893 7.80789L-0.953083 7.86738L5.04414 7.68494L5.04233 7.62544L-0.954893 7.80789ZM-0.953087 7.86724C-0.911424 9.23893 -0.765123 10.6025 -0.516495 11.9429L5.38287 10.8486C5.19028 9.81031 5.07654 8.7517 5.04415 7.68508L-0.953087 7.86724ZM-0.516487 11.9429C-0.256929 13.3421 0.114444 14.7176 0.595654 16.0515L6.23965 14.0155C5.87068 12.9927 5.58393 11.9324 5.38287 10.8486L-0.516487 11.9429ZM0.595632 16.0515C1.62873 18.9155 3.15152 21.5422 5.09413 23.773L9.61893 19.8326C8.18696 18.1882 7.03289 16.2146 6.23967 14.0156L0.595632 16.0515ZM5.09418 23.773C7.03741 26.0044 9.36707 27.8003 11.963 29.0349L14.54 23.6165C12.7267 22.7541 11.0502 21.4761 9.61888 19.8326L5.09418 23.773ZM11.9629 29.0349C13.171 29.6095 14.4243 30.0566 15.7069 30.3702L17.1321 24.542C16.2521 24.3268 15.3844 24.0181 14.5401 23.6166L11.9629 29.0349ZM15.7065 30.3701C16.9338 30.6705 18.186 30.848 19.4482 30.8987L19.689 24.9036C18.8298 24.8691 17.9746 24.7481 17.1325 24.5421L15.7065 30.3701ZM19.4438 30.8986L19.4962 30.9007L19.7458 24.9059L19.6934 24.9037L19.4438 30.8986ZM19.1427 30.865L19.1946 30.8733L20.1512 24.9501L20.0993 24.9417L19.1427 30.865ZM19.1944 30.8733C19.5263 30.9269 19.8647 30.9544 20.2073 30.9544V24.9544C20.1861 24.9544 20.1677 24.9528 20.1514 24.9501L19.1944 30.8733ZM20.2073 30.9544C24.3348 30.9544 26.9999 27.2586 26.9999 23.5992H20.9999C20.9999 24.1006 20.8225 24.4838 20.6267 24.7087C20.436 24.9276 20.2803 24.9544 20.2073 24.9544V30.9544ZM26.9999 23.5992C26.9999 22.9075 26.9117 22.2337 26.7444 21.5919L20.9384 23.1049C20.9769 23.2528 20.9999 23.4182 20.9999 23.5992H26.9999ZM24.43 19.4067L20.6219 18.6448L19.4447 24.5282L23.2528 25.2901L24.43 19.4067Z" fill="white" mask="url(#path-1-inside-1_37_188)"/>
</svg>
