<svg width="26" height="36" viewBox="0 0 26 36" fill="none" xmlns="http://www.w3.org/2000/svg">
<path d="M17.9889 18.1549L2.18876 30.5879C1.55813 31.0881 1.16535 31.8011 1.09644 32.5706C1.02753 33.3402 1.2881 34.1036 1.8211 34.6938C2.35409 35.284 3.11607 35.6527 3.94017 35.7194C4.76427 35.786 5.58333 35.545 6.21798 35.0493L24.8864 20.3581C25.2364 20.082 25.5173 19.7375 25.7092 19.349C25.9011 18.9605 25.9993 18.5375 25.9969 18.1098C25.9945 17.6822 25.8915 17.2603 25.6953 16.874C25.499 16.4877 25.2143 16.1464 24.8612 15.8742L6.02864 1.39403C5.38872 0.903084 4.566 0.669469 3.74121 0.744511C2.91642 0.819548 2.15702 1.1971 1.62981 1.79423C1.10261 2.39136 0.850716 3.15923 0.929477 3.92917C1.00824 4.69911 1.41121 5.40814 2.04987 5.90052L17.9889 18.1549Z" fill="white"/>
</svg>
